<svg width="24" height="24" viewBox="0 0 24 24" fill="none" xmlns="http://www.w3.org/2000/svg">
<path d="M10.5621 5.0345C10.8843 4.16389 12.1157 4.16389 12.4379 5.03451L13.9063 9.0029C14.0076 9.27662 14.2234 9.49243 14.4971 9.59371L18.4655 11.0621C19.3361 11.3843 19.3361 12.6157 18.4655 12.9379L14.4971 14.4063C14.2234 14.5076 14.0076 14.7234 13.9063 14.9971L12.4379 18.9655C12.1157 19.8361 10.8843 19.8361 10.5621 18.9655L9.09371 14.9971C8.99243 14.7234 8.77662 14.5076 8.5029 14.4063L4.5345 12.9379C3.66389 12.6157 3.66389 11.3843 4.53451 11.0621L8.5029 9.59371C8.77662 9.49243 8.99243 9.27662 9.09371 9.0029L10.5621 5.0345Z" stroke="white"/>
<circle cx="18.5" cy="5.5" r="2" stroke="white"/>
<path d="M18.5 20.5V18.5M18.5 16.5V18.5M18.5 18.5H16.5M18.5 18.5H20.5" stroke="white" stroke-linecap="round"/>
</svg>
