<svg width="24" height="24" viewBox="0 0 24 24" fill="none" xmlns="http://www.w3.org/2000/svg">
<path fill-rule="evenodd" clip-rule="evenodd" d="M7.2 19H12C13.3845 19 14.7378 18.5895 15.889 17.8203C17.0401 17.0511 17.9373 15.9579 18.4672 14.6788C18.997 13.3997 19.1356 11.9922 18.8655 10.6344C18.5954 9.2765 17.9287 8.02922 16.9497 7.05025C15.9708 6.07128 14.7235 5.4046 13.3656 5.1345C12.0078 4.86441 10.6003 5.00303 9.32122 5.53284C8.04213 6.06266 6.94888 6.95986 6.17971 8.11101C5.41054 9.26215 5 10.6155 5 12V16.8C5 17.377 5 17.749 5.024 18.032C5.046 18.304 5.084 18.404 5.109 18.454C5.20487 18.6422 5.35785 18.7951 5.546 18.891C5.596 18.916 5.696 18.954 5.968 18.976C6.25 19 6.623 19 7.2 19ZM12 4C9.87827 4 7.84344 4.84285 6.34315 6.34315C4.84285 7.84344 4 9.87827 4 12V16.8C4 17.92 4 18.48 4.218 18.908C4.40974 19.2843 4.71569 19.5903 5.092 19.782C5.52 20 6.08 20 7.2 20H12C14.1217 20 16.1566 19.1571 17.6569 17.6569C19.1571 16.1566 20 14.1217 20 12C20 9.87827 19.1571 7.84344 17.6569 6.34315C16.1566 4.84285 14.1217 4 12 4Z" fill="white"/>
</svg>
