<svg width="24" height="24" viewBox="0 0 24 24" fill="none" xmlns="http://www.w3.org/2000/svg">
<path fill-rule="evenodd" clip-rule="evenodd" d="M11.3888 12.9615C11.1135 11.9393 12.0884 11.0069 13.0962 11.3287L13.1976 11.3648L17.1558 12.9625C18.3978 13.4639 18.2287 15.2753 16.9158 15.5387L15.7118 15.7799L15.4172 16.9723C15.095 18.2733 13.2799 18.36 12.8357 17.0953L11.421 13.065L11.3888 12.9615ZM12.861 12.2008C12.5024 12.056 12.1408 12.4011 12.2688 12.7662L13.6845 16.7975C13.8237 17.1924 14.3645 17.191 14.5196 16.8316L14.545 16.7555L14.9089 15.2867C14.9507 15.1178 15.0858 14.9881 15.2562 14.9537L16.7392 14.6568C17.1495 14.5746 17.2246 14.0381 16.8914 13.8336L16.8192 13.7975L12.861 12.2008Z" fill="#7CC4F8"/>
<path fill-rule="evenodd" clip-rule="evenodd" d="M16.2402 6C17.2058 6 17.9886 6.7835 17.9886 7.75V8.25C17.9884 9.21639 17.2057 10 16.2402 10H9.99619V16.25C9.99605 17.2164 9.21335 18 8.24785 18H7.74833C6.78284 18 6.00013 17.2164 6 16.25V7.75C6 6.7835 6.78275 6 7.74833 6H16.2402ZM6.89953 16.25C6.89966 16.7193 7.27942 17.0996 7.74833 17.0996H8.24785C8.71677 17.0996 9.09652 16.7193 9.09665 16.25V15H8.49762C8.22182 15 7.99822 14.776 7.99809 14.5C7.99809 14.2239 8.22174 14 8.49762 14H9.09665V13H8.49762C8.22182 13 7.99822 12.776 7.99809 12.5C7.99809 12.2239 8.22174 12 8.49762 12H9.09665V10H6.89953V16.25ZM7.74833 6.90039C7.27934 6.90039 6.89953 7.28056 6.89953 7.75V9.09961H9.09665V6.90039H7.74833ZM9.99619 9.09961H11.9943V8.5C11.9943 8.22386 12.2179 8 12.4938 8C12.7697 8 12.9933 8.22386 12.9933 8.5V9.09961H13.9924V8.5C13.9924 8.22386 14.216 8 14.4919 8C14.7678 8 14.9914 8.22386 14.9914 8.5V9.09961H16.2402C16.7091 9.09961 17.0889 8.71933 17.089 8.25V7.75C17.089 7.28056 16.7092 6.90039 16.2402 6.90039H9.99619V9.09961Z" fill="#7CC4F8"/>
</svg>
