<svg width="24" height="24" viewBox="0 0 24 24" fill="none" xmlns="http://www.w3.org/2000/svg">
<path fill-rule="evenodd" clip-rule="evenodd" d="M7.5 4C7.36739 4 7.24021 4.05268 7.14645 4.14645C7.05268 4.24021 7 4.36739 7 4.5V7H4.5C4.36739 7 4.24021 7.05268 4.14645 7.14645C4.05268 7.24021 4 7.36739 4 7.5C4 7.63261 4.05268 7.75979 4.14645 7.85355C4.24021 7.94732 4.36739 8 4.5 8H7V16H4.5C4.36739 16 4.24021 16.0527 4.14645 16.1464C4.05268 16.2402 4 16.3674 4 16.5C4 16.6326 4.05268 16.7598 4.14645 16.8536C4.24021 16.9473 4.36739 17 4.5 17H7V19.5C7 19.6326 7.05268 19.7598 7.14645 19.8536C7.24021 19.9473 7.36739 20 7.5 20C7.63261 20 7.75979 19.9473 7.85355 19.8536C7.94732 19.7598 8 19.6326 8 19.5V17H16V19.5C16 19.6326 16.0527 19.7598 16.1464 19.8536C16.2402 19.9473 16.3674 20 16.5 20C16.6326 20 16.7598 19.9473 16.8536 19.8536C16.9473 19.7598 17 19.6326 17 19.5V17H19.5C19.6326 17 19.7598 16.9473 19.8536 16.8536C19.9473 16.7598 20 16.6326 20 16.5C20 16.3674 19.9473 16.2402 19.8536 16.1464C19.7598 16.0527 19.6326 16 19.5 16H17V8H19.5C19.6326 8 19.7598 7.94732 19.8536 7.85355C19.9473 7.75979 20 7.63261 20 7.5C20 7.36739 19.9473 7.24021 19.8536 7.14645C19.7598 7.05268 19.6326 7 19.5 7H17V4.5C17 4.36739 16.9473 4.24021 16.8536 4.14645C16.7598 4.05268 16.6326 4 16.5 4C16.3674 4 16.2402 4.05268 16.1464 4.14645C16.0527 4.24021 16 4.36739 16 4.5V7H8V4.5C8 4.36739 7.94732 4.24021 7.85355 4.14645C7.75979 4.05268 7.63261 4 7.5 4ZM16 8H8V16H16V8Z" fill="white"/>
</svg>
