<svg width="24" height="24" viewBox="0 0 24 24" fill="none" xmlns="http://www.w3.org/2000/svg">
<path d="M6.58496 6.58594C7.14742 6.02348 7.98953 5.84849 8.72949 6.13867L17.7295 9.67383C18.5206 9.98463 19.0288 10.7626 18.9971 11.6113C18.9648 12.4604 18.3996 13.1972 17.5869 13.4473L14.4199 14.4209L13.4463 17.5879C13.1962 18.4006 12.4594 18.9658 11.6104 18.998C10.7616 19.0298 9.98366 18.5216 9.67285 17.7305L6.1377 8.73047C5.84751 7.99051 6.0225 7.14839 6.58496 6.58594ZM8.36426 7.06934C7.9942 6.92431 7.57308 7.01189 7.29199 7.29297C7.01091 7.57405 6.92333 7.99518 7.06836 8.36523L10.6035 17.3652C10.7588 17.7606 11.1478 18.0148 11.5723 17.999C11.997 17.9829 12.3652 17.7002 12.4902 17.2939L13.6201 13.6211L17.293 12.4912C17.6992 12.3662 17.9819 11.998 17.998 11.5732C18.0138 11.1488 17.7596 10.7598 17.3643 10.6045L8.36426 7.06934Z" fill="white"/>
</svg>
