<svg width="24" height="24" viewBox="0 0 24 24" fill="none" xmlns="http://www.w3.org/2000/svg">
<path d="M10.2417 10.2368L3.87761 3.87273M10.2417 10.2368C9.26539 11.2132 9.26539 12.7961 10.2417 13.7725C11.2181 14.7488 12.801 14.7488 13.7773 13.7725C14.7537 12.7961 14.7537 11.2132 13.7773 10.2368C12.801 9.2605 11.2181 9.2605 10.2417 10.2368ZM3.87761 3.87273L3.95505 3.79529C4.12811 3.62223 4.37608 3.54508 4.61738 3.58591C10.4089 4.56591 14.1843 4.27971 16.6058 6.70122C18.5858 8.68117 19.0808 11.5332 19.0808 12.7118L20.1415 13.7725C20.532 14.163 20.532 14.7962 20.1415 15.1867L15.1916 20.1366C14.801 20.5271 14.1679 20.5271 13.7774 20.1366L12.7167 19.0759C11.5381 19.0759 8.68605 18.5809 6.7061 16.6009C4.28459 14.1794 4.57079 10.4041 3.59079 4.6125C3.54996 4.3712 3.62712 4.12323 3.80017 3.95017L3.87761 3.87273Z" stroke="white" stroke-linejoin="round"/>
</svg>
