<svg width="24" height="24" viewBox="0 0 24 24" fill="none" xmlns="http://www.w3.org/2000/svg">
<path d="M11.4219 10.1841C11.8611 9.74491 12.5734 9.74506 13.0127 10.1841L18.5811 15.7524C19.3621 16.5335 19.3621 17.8005 18.5811 18.5815C17.8 19.3622 16.5339 19.3624 15.7529 18.5815L10.1846 13.0132C9.74523 12.5738 9.74523 11.8607 10.1846 11.4214L11.4219 10.1841ZM12.5703 13.9849L16.46 17.8745C16.8504 18.2648 17.4835 18.2647 17.874 17.8745C18.2646 17.484 18.2646 16.85 17.874 16.4595L13.9854 12.5708L12.5703 13.9849ZM12.3057 10.8911C12.2568 10.8426 12.1776 10.8425 12.1289 10.8911L10.8916 12.1284C10.8428 12.1772 10.8428 12.2573 10.8916 12.3062L11.8633 13.2778L13.2783 11.8638L12.3057 10.8911ZM7.97461 11.5005C8.25075 11.5005 8.47461 11.7243 8.47461 12.0005C8.47435 12.2764 8.25059 12.5005 7.97461 12.5005H5.5C5.22402 12.5005 5.00026 12.2764 5 12.0005C5 11.7243 5.22386 11.5005 5.5 11.5005H7.97461ZM6.56055 6.56006C6.75573 6.36502 7.07234 6.36512 7.26758 6.56006L9.38867 8.68213C9.58393 8.87739 9.58393 9.1939 9.38867 9.38916C9.19338 9.58407 8.87678 9.5843 8.68164 9.38916L6.56055 7.26709C6.36557 7.0718 6.36538 6.75523 6.56055 6.56006ZM11.5 8.00049V5.5249C11.5001 5.24886 11.7239 5.0249 12 5.0249C12.2761 5.0249 12.4999 5.24886 12.5 5.5249V8.00049C12.4997 8.27641 12.276 8.50049 12 8.50049C11.724 8.50049 11.5003 8.27641 11.5 8.00049Z" fill="white"/>
</svg>
