<svg width="24" height="24" viewBox="0 0 24 24" fill="none" xmlns="http://www.w3.org/2000/svg">
<path d="M14.5 9C14.7761 9 15 9.22386 15 9.5V12.5C15 12.7761 14.7761 13 14.5 13C14.2239 13 14 12.7761 14 12.5V10.707L11.9648 12.7412C11.987 12.8239 12 12.9104 12 13V17C12 17.5523 11.5523 18 11 18H7C6.44772 18 6 17.5523 6 17V13C6 12.4477 6.44772 12 7 12H11C11.0892 12 11.1755 12.0123 11.2578 12.0342L13.293 10H11.5C11.2239 10 11 9.77614 11 9.5C11 9.22386 11.2239 9 11.5 9H14.5ZM16.5 6C17.3284 6 18 6.67157 18 7.5V16.5C18 17.3284 17.3284 18 16.5 18H14C13.7239 18 13.5 17.7761 13.5 17.5C13.5 17.2239 13.7239 17 14 17H16.5C16.7761 17 17 16.7761 17 16.5V7.5C17 7.22386 16.7761 7 16.5 7H7.5C7.22386 7 7 7.22386 7 7.5V10C7 10.2761 6.77614 10.5 6.5 10.5C6.22386 10.5 6 10.2761 6 10V7.5C6 6.67157 6.67157 6 7.5 6H16.5ZM7 17H11V13H7V17Z" fill="white"/>
</svg>
