<svg width="24" height="24" viewBox="0 0 24 24" fill="none" xmlns="http://www.w3.org/2000/svg">
<path fill-rule="evenodd" clip-rule="evenodd" d="M4 4.5C4 4.36739 4.05268 4.24021 4.14645 4.14645C4.24021 4.05268 4.36739 4 4.5 4H18.5C18.6326 4 18.7598 4.05268 18.8536 4.14645C18.9473 4.24021 19 4.36739 19 4.5V7.5C19 7.63261 18.9473 7.75979 18.8536 7.85355C18.7598 7.94732 18.6326 8 18.5 8C18.3674 8 18.2402 7.94732 18.1464 7.85355C18.0527 7.75979 18 7.63261 18 7.5V5H12V18H14.5C14.6326 18 14.7598 18.0527 14.8536 18.1464C14.9473 18.2402 15 18.3674 15 18.5C15 18.6326 14.9473 18.7598 14.8536 18.8536C14.7598 18.9473 14.6326 19 14.5 19H8.5C8.36739 19 8.24021 18.9473 8.14645 18.8536C8.05268 18.7598 8 18.6326 8 18.5C8 18.3674 8.05268 18.2402 8.14645 18.1464C8.24021 18.0527 8.36739 18 8.5 18H11V5H5V7.5C5 7.63261 4.94732 7.75979 4.85355 7.85355C4.75979 7.94732 4.63261 8 4.5 8C4.36739 8 4.24021 7.94732 4.14645 7.85355C4.05268 7.75979 4 7.63261 4 7.5V4.5Z" fill="white"/>
</svg>
